<svg id="Layer_1" data-name="Layer 1" xmlns="http://www.w3.org/2000/svg" viewBox="0 0 841.89 595.28"><defs><style>.cls-1{fill:#231f20;}</style></defs><path class="cls-1" d="M114.42,246.46v13h29v14.89h-29v22.43H95.06V231.56h50.63v14.9Z"/><path class="cls-1" d="M182.27,279.22H172v17.59H152.68V231.56h30.43c17.5,0,27.55,8.38,27.55,23.18,0,9.68-3.91,16.76-11,20.76l13.22,21.31h-22Zm.84-14.89c5.77,0,9.12-3.17,9.12-9,0-5.68-3.35-8.84-9.12-8.84H172v17.87Z"/><path class="cls-1" d="M287.55,264.14c0,19.18-15.08,33.51-35.56,33.51s-35.55-14.24-35.55-33.51S231.51,231,252,231,287.55,245.06,287.55,264.14Zm-51.29.1c0,9.86,7.45,17.22,16,17.22s15.45-7.36,15.45-17.22-6.89-17-15.45-17S236.26,254.37,236.26,264.24Z"/><path class="cls-1" d="M317.33,281.73h33.05v15.08H291.55V284.62l32.39-38H292.67V231.56h57.05v12.29Z"/><path class="cls-1" d="M377.37,246.46V256.7h30.81v14.89H377.37v10.33h34.91v14.89H358V231.56h53.33v14.9Z"/><path class="cls-1" d="M467,296.81l-27.65-36.3v36.3H421.58V231.56h16.57l27.65,36.49V231.56h17.68v65.25Z"/><path class="cls-1" d="M574.14,263v26.24c-7.07,4.84-18.61,8.38-27.92,8.38-20.2,0-35.09-14.24-35.09-33.41S526.48,231,547.52,231c10,0,20.66,3.81,27.55,9.86l-11,13.31c-4.47-4.28-11-7.07-16.66-7.07-9.4,0-16.48,7.35-16.48,17.13,0,9.95,7.17,17.22,16.66,17.22a26.19,26.19,0,0,0,9.87-2.52V263Z"/><path class="cls-1" d="M601.32,286.39l-3.91,10.42H577.49l27.84-65.25h19.91l26.9,65.25H631.48l-3.82-10.42Zm13.41-35.46-8,21.31h15.83Z"/><path class="cls-1" d="M683.14,247v49.79H663.69V247h-18.9V231.56h57.34V247Z"/><path class="cls-1" d="M727.54,246.46V256.7h30.81v14.89H727.54v10.33h34.9v14.89H708.18V231.56h53.33v14.9Z"/><path class="cls-1" d="M106.33,323.7v7.58h16.9V340h-16.9V353H95.06V315h29.47v8.67Z"/><path class="cls-1" d="M167.83,334c0,11.17-8.78,19.51-20.7,19.51s-20.7-8.29-20.7-19.51,8.78-19.29,20.7-19.29S167.83,322.89,167.83,334Zm-29.86.06c0,5.74,4.34,10,9.32,10s9-4.28,9-10-4-9.92-9-9.92S138,328.3,138,334.05Z"/><path class="cls-1" d="M189.28,342.77h-6V353H172.05V315h17.72c10.19,0,16,4.88,16,13.49,0,5.64-2.28,9.75-6.39,12.08L207.11,353H194.32Zm.49-8.67c3.36,0,5.31-1.84,5.31-5.25s-2-5.15-5.31-5.15h-6.45v10.4Z"/><path class="cls-1" d="M234.47,323.7v7.58h16.91V340H234.47V353H223.2V315h29.48v8.67Z"/><path class="cls-1" d="M296,334c0,11.17-8.78,19.51-20.7,19.51s-20.69-8.29-20.69-19.51,8.77-19.29,20.69-19.29S296,322.89,296,334Zm-29.85.06c0,5.74,4.33,10,9.32,10s9-4.28,9-10-4-9.92-9-9.92S266.12,328.3,266.12,334.05Z"/><path class="cls-1" d="M339.1,334c0,11.17-8.78,19.51-20.7,19.51s-20.69-8.29-20.69-19.51,8.77-19.29,20.69-19.29S339.1,322.89,339.1,334Zm-29.85.06c0,5.74,4.33,10,9.32,10s9-4.28,9-10-4-9.92-9-9.92S309.25,328.3,309.25,334.05Z"/><path class="cls-1" d="M360,315c12.3,0,20.43,7.53,20.43,19s-8.29,19-20.81,19H343.33V315Zm-5.36,29.15h5.69c5.15,0,8.61-4,8.61-10.08s-3.73-10.18-9.15-10.18H354.6Z"/><path class="cls-1" d="M396.48,353V315h11.27v38Z"/><path class="cls-1" d="M440.59,353,424.5,331.88V353H414.15V315h9.64l16.09,21.24V315h10.3v38Z"/><path class="cls-1" d="M467.73,353l-14.52-38h12l8.67,26.28L482.58,315h11.54l-14.68,38Z"/><path class="cls-1" d="M508.37,323.7v6h17.94v8.67H508.37v6h20.32V353H497.1V315h31v8.67Z"/><path class="cls-1" d="M565.59,318.93l-4.17,8.67c-3.9-2.22-9.43-4.23-12.63-4.23-1.89,0-3.14.65-3.14,2.06,0,5.58,19.83,2.28,19.83,16,0,8.07-7.15,11.92-15.66,11.92a31,31,0,0,1-18.26-6l4.23-8.56c3.9,3.31,10.24,5.8,14.14,5.8,2.39,0,3.9-.81,3.9-2.55,0-5.74-19.83-2.11-19.83-15.49,0-7.32,6.23-12,15.72-12A30.65,30.65,0,0,1,565.59,318.93Z"/><path class="cls-1" d="M589.05,324v29H577.73V324h-11v-9h33.38v9Z"/><path class="cls-1" d="M636.25,353l-.06-22.48-7.64,18.74h-7.37l-7.63-18.74V353h-9.92V315h12.08l9.16,21L634,315h12.08v38Z"/><path class="cls-1" d="M663.77,323.7v6h17.94v8.67H663.77v6h20.32V353H652.5V315h31v8.67Z"/><path class="cls-1" d="M716,353l-16.09-21.13V353H689.51V315h9.65l16.09,21.24V315h10.29v38Z"/><path class="cls-1" d="M751.39,324v29H740.06V324h-11v-9h33.37v9Z"/></svg>